<?xml version="1.0" standalone="no"?>
<!DOCTYPE svg PUBLIC "-//W3C//DTD SVG 20010904//EN"
 "http://www.w3.org/TR/2001/REC-SVG-20010904/DTD/svg10.dtd">
<svg version="1.0" xmlns="http://www.w3.org/2000/svg"
 width="460.000000pt" height="261.000000pt" viewBox="0 0 460.000000 261.000000"
 preserveAspectRatio="xMidYMid meet">
<metadata>
Created by potrace 1.12, written by Peter Selinger 2001-2015
</metadata>
<g transform="translate(0.000000,261.000000) scale(0.100000,-0.100000)"
fill="#000000" stroke="none">
<path d="M0 1305 l0 -1305 2300 0 2300 0 0 1305 0 1305 -2300 0 -2300 0 0
-1305z m4579 1281 c8 -10 10 -355 9 -1292 l-3 -1279 -2274 -3 c-1673 -1 -2277
1 -2287 9 -12 9 -14 150 -14 810 0 439 3 800 7 802 8 5 450 -168 468 -183 6
-5 30 -12 53 -16 50 -8 60 14 15 32 -16 7 -134 53 -263 105 -129 51 -245 99
-257 107 -21 13 -23 22 -23 108 0 52 2 94 4 94 2 0 158 -52 347 -115 189 -64
355 -115 369 -113 17 2 25 9 25 23 0 17 -48 36 -370 145 l-370 125 -3 49 c-2
27 0 52 5 57 4 4 145 -33 313 -82 329 -97 335 -99 425 -123 33 -9 85 -25 115
-35 30 -11 105 -33 165 -50 61 -18 146 -43 190 -56 288 -88 813 -235 837 -235
25 0 29 4 26 23 -3 19 -16 26 -103 48 -193 51 -291 78 -455 124 -91 26 -205
57 -255 70 -98 26 -412 116 -580 166 -16 5 -172 50 -345 99 -173 50 -321 96
-328 104 -8 8 -12 29 -10 53 l3 39 380 -99 c209 -54 470 -121 580 -148 110
-27 211 -53 225 -58 14 -6 194 -53 400 -105 206 -53 385 -100 398 -106 12 -5
22 -16 22 -25 0 -17 78 -20 203 -8 57 5 67 9 67 25 0 18 -7 19 -105 16 -90 -3
-105 -1 -105 13 0 11 -21 20 -82 33 -229 49 -1959 486 -1975 499 -14 10 -18
53 -5 61 4 2 183 -36 397 -86 215 -49 409 -94 432 -99 23 -4 89 -19 145 -33
57 -13 155 -36 218 -50 204 -47 245 -59 258 -75 11 -13 31 -15 115 -13 108 4
117 6 117 27 0 11 -16 13 -86 8 -72 -5 -89 -4 -98 10 -7 8 -46 22 -87 31 -198
42 -264 57 -297 65 -43 11 -158 38 -700 160 -216 49 -399 94 -407 101 -12 10
-15 38 -15 130 0 64 3 120 7 123 3 4 1029 7 2278 7 1902 0 2274 -2 2284 -14z"/>
<path d="M1425 2253 c-3 -14 -15 -38 -26 -51 -10 -14 -19 -33 -19 -43 0 -29
46 -25 66 6 27 41 32 29 13 -27 -10 -29 -18 -63 -19 -76 0 -19 4 -23 27 -20
23 3 29 11 45 63 22 75 22 75 -2 75 -15 0 -20 7 -20 25 0 30 -27 75 -45 75 -7
0 -16 -12 -20 -27z"/>
<path d="M870 1646 c-19 -7 -36 -20 -38 -29 -2 -11 -13 -17 -33 -17 -32 0 -39
-19 -14 -40 8 -7 15 -21 15 -31 0 -15 8 -19 39 -19 43 0 66 19 58 49 -4 15 0
18 17 15 11 -2 241 -78 509 -169 269 -91 499 -165 513 -165 30 0 31 21 2 53
-18 19 -130 60 -501 181 -294 97 -480 163 -484 171 -6 18 -35 18 -83 1z"/>
<path d="M2432 1538 c-12 -6 -25 -22 -28 -35 -7 -26 -19 -28 -54 -8 -14 8 -31
14 -37 15 -18 0 -16 -45 2 -60 8 -7 15 -21 15 -31 0 -13 7 -19 24 -19 13 0 30
-9 37 -20 10 -15 80 -39 264 -93 245 -71 250 -73 253 -100 2 -16 9 -30 17 -33
20 -8 287 25 302 37 7 7 13 21 13 32 0 19 -4 20 -82 13 -46 -3 -107 -9 -136
-12 l-53 -7 6 26 c6 22 3 27 -20 33 -15 4 -143 39 -284 78 -242 68 -256 73
-259 96 -2 21 5 28 38 42 28 12 40 22 40 37 0 23 -21 26 -58 9z"/>
<path d="M3887 1532 c-9 -10 -20 -33 -23 -50 -10 -51 -21 -53 -121 -30 l-91
21 -68 -38 c-114 -63 -136 -82 -132 -118 3 -29 7 -32 40 -35 29 -2 53 6 107
37 111 65 120 54 31 -34 -33 -33 -62 -71 -65 -87 -8 -35 -24 -36 -56 -2 -19
20 -31 25 -55 21 -25 -4 -37 0 -55 19 -17 18 -32 24 -54 22 -26 -3 -30 -7 -33
-37 -3 -31 4 -42 85 -123 61 -62 95 -88 111 -88 14 0 47 16 74 36 l50 37 34
-34 34 -34 -65 -75 c-36 -41 -70 -80 -75 -87 -15 -19 -12 -50 8 -69 13 -14 13
-17 2 -13 -8 3 -279 92 -601 199 l-586 193 -37 -28 c-22 -17 -50 -54 -68 -89
-17 -33 -41 -78 -55 -99 -29 -47 -24 -70 14 -65 19 2 29 10 31 23 2 11 9 25
16 30 8 6 27 38 44 72 18 34 36 64 41 67 7 5 470 -149 1566 -519 35 -12 37
-15 18 -20 -26 -8 -40 -54 -21 -67 14 -9 23 -8 218 22 74 12 147 26 163 32 26
10 47 51 33 65 -3 4 -86 -6 -183 -20 -97 -15 -178 -25 -181 -22 -3 3 0 16 6
30 7 14 12 32 12 40 0 9 -70 37 -204 81 -113 38 -202 72 -199 77 2 4 10 4 16
-1 7 -4 37 -8 67 -8 45 1 55 4 58 19 2 11 -6 29 -18 42 l-21 22 80 92 c83 94
94 120 65 152 -15 17 -14 18 14 14 17 -2 55 -11 83 -19 29 -9 72 -16 95 -16
36 0 46 5 63 29 27 37 27 55 1 48 -10 -3 -24 1 -30 8 -6 7 -27 16 -48 20 -50
9 -72 22 -72 43 0 10 -5 23 -12 30 -14 14 7 121 25 127 7 2 24 6 38 9 30 6 74
59 85 100 5 23 3 26 -18 26 -14 0 -33 9 -43 20 -25 27 -114 28 -138 2z"/>
<path d="M767 1413 c-3 -5 -8 -24 -12 -43 -4 -19 -16 -43 -26 -52 -18 -18 -36
-84 -26 -94 3 -4 22 -1 41 6 38 12 49 43 24 69 -11 10 -8 10 15 2 16 -6 42
-11 58 -11 39 0 39 31 -1 60 -16 12 -33 32 -36 46 -6 23 -28 33 -37 17z"/>
<path d="M978 1343 c-21 -8 -38 -19 -38 -24 0 -5 -7 -9 -16 -9 -12 0 -15 -6
-11 -20 4 -17 -2 -24 -34 -36 -21 -9 -39 -17 -39 -18 0 0 -7 -39 -15 -86 -22
-126 -22 -130 20 -130 25 0 38 5 42 18 4 9 12 22 19 29 6 7 18 52 25 100 6 48
13 89 14 91 2 2 536 -207 763 -299 12 -5 33 -13 47 -19 14 -5 35 -14 48 -19
12 -5 105 -42 207 -82 174 -68 215 -85 332 -138 26 -11 56 -21 65 -21 25 1 53
24 53 43 0 13 -10 16 -48 14 -27 -1 -60 3 -73 10 -13 6 -107 44 -209 84 -102
39 -210 83 -240 96 -61 27 -93 41 -130 56 -39 15 -100 47 -160 83 -45 28 -402
175 -542 225 -41 14 -47 23 -23 33 21 8 19 36 -2 35 -10 0 -35 -7 -55 -16z"/>
<path d="M1266 933 c-16 -54 -32 -102 -36 -106 -6 -6 -296 -47 -337 -47 -7 0
-13 -7 -13 -15 0 -11 11 -15 38 -15 51 1 332 36 339 43 8 9 63 197 63 218 0
11 -6 19 -13 19 -7 0 -24 -40 -41 -97z"/>
</g>
</svg>
